<svg xmlns="http://www.w3.org/2000/svg" xml:space="preserve" style="fill-rule:evenodd;clip-rule:evenodd;stroke-linejoin:round;stroke-miterlimit:2" viewBox="0 0 102 28">
  <path d="M283.934 112.572H53.862c-2.75 0-5 2.25-5 5v208.275h4.981l.019.002h230.071l.02-.002h4.98V117.572c.001-2.75-2.249-5-4.999-5Z" style="fill:#f8f9fb;fill-rule:nonzero" transform="matrix(.07497 0 0 .09264 -2.298 -9.965)"/>
  <path d="M283.934 330.85H53.862l-.138-.002h-4.862c-2.743 0-5-2.257-5-5V117.572c0-5.515 4.486-10 10-10h230.071c5.514 0 10 4.485 10 10v208.275c0 2.743-2.257 5-5 5h-4.862a3.13 3.13 0 0 1-.137.003Zm-229.952-10h229.833l.118-.002V117.572H53.862v203.275l.12.003Zm361.321 9.509c-2.743 0-5-2.257-5-5v-4.59a5 5 0 0 1 5-5 5 5 0 0 1 5 5v4.59c0 2.743-2.257 5-5 5Z" style="fill-rule:nonzero" transform="matrix(.07497 0 0 .09264 -2.298 -9.965)"/>
  <path d="M208.835 171.692v17.391c0 2.75-2.25 5-5 5h-24.229v24.229c0 2.75-2.25 5-5 5h-17.4c-2.75 0-5-2.25-5-5v-24.229h-24.23c-2.75 0-5-2.25-5-5v-17.391c0-2.75 2.25-5 5-5h24.23v-24.229c0-2.75 2.25-5 5-5h17.4c2.75 0 5 2.25 5 5v24.229h24.229c2.75 0 5 2.25 5 5Z" style="fill:#ec2529;fill-rule:nonzero" transform="matrix(.07497 0 0 .09264 1.52 -9.396)"/>
  <path d="M174.605 228.313h-17.4c-5.514 0-10-4.486-10-10v-19.229h-19.23c-5.514 0-10-4.486-10-10v-17.391c0-5.515 4.486-10 10-10h19.23v-19.229c0-5.515 4.486-10 10-10h17.4c5.514 0 10 4.485 10 10v19.229h19.229c5.514 0 10 4.485 10 10v17.391c0 5.514-4.486 10-10 10h-19.229v19.229c0 5.513-4.485 10-10 10Zm0-10v5-5Zm-46.63-46.621v17.391h24.23c2.743 0 5 2.257 5 5v24.229h17.386l.015-24.229c0-2.743 2.257-5 5-5h24.229v-17.391h-24.229c-2.743 0-5-2.257-5-5v-24.229h-17.4v24.229c0 2.743-2.257 5-5 5h-24.231Z" style="fill-rule:nonzero" transform="matrix(.07497 0 0 .09264 1.52 -9.396)"/>
  <path d="M443.883 228.84h-28.579l-43.79-66.418-.021-.037-8.85-13.425-1.14-1.73c0-.002-.004-.003-.004-.004-1.518-2.292-4.999-4.166-7.745-4.166h-64.82v182.79h174.21v-74.54c0-12.411-8.621-22.47-19.261-22.47Z" style="fill:#f8f9fb;fill-rule:nonzero" transform="matrix(.07497 0 0 .09264 -2.298 -9.965)"/>
  <path d="M463.144 330.85h-174.21c-2.743 0-5-2.257-5-5V143.06c0-2.743 2.257-5 5-5h64.819c4.41 0 9.375 2.649 11.854 6.314l.071.105 9.988 15.153c.027.042.055.084.081.127l.003.005 42.245 64.075h25.887c13.377 0 24.261 12.322 24.261 27.47V325.85c0 2.743-2.256 4.999-4.999 5Zm-169.21-10h164.21v-69.54c0-9.633-6.397-17.47-14.261-17.47h-28.579a5.007 5.007 0 0 1-4.175-2.248l-43.79-66.418c-.027-.042-.055-.084-.081-.127l-.003-.006-9.873-14.979-.052-.077c-.596-.899-2.501-1.926-3.576-1.926h-59.82V320.85Z" style="fill-rule:nonzero" transform="matrix(.07497 0 0 .09264 -2.298 -9.965)"/>
  <path d="M463.144 251.307v74.539h-10.5v-74.539c0-12.41-8.62-22.47-19.26-22.47h10.5c10.639 0 19.26 10.059 19.26 22.47Z" style="fill-opacity:.05;fill-rule:nonzero" transform="matrix(.07497 0 0 .09264 -2.298 -9.965)"/>
  <path d="M390.286 224.241c1.449 2.337.386 4.249-2.364 4.249h-70.79c-2.75 0-5-2.25-5-5v-55.112c0-2.75 2.25-5 5-5h30.396c2.75 0 6.187 1.912 7.636 4.248l35.122 56.615Z" style="fill:#a8ceed;fill-rule:nonzero" transform="matrix(.07497 0 0 .09264 -2.298 -9.965)"/>
  <path d="M387.922 233.49h-70.79c-5.514 0-10-4.486-10-10v-55.112c0-5.515 4.486-10 10-10h30.396c4.51 0 9.508 2.781 11.885 6.612l35.123 56.615c1.676 2.702 1.862 5.643.513 8.067-1.351 2.427-3.948 3.818-7.127 3.818Zm-70.79-65.113v55.113h66.803l-33.021-53.229c-.535-.862-2.371-1.884-3.387-1.884h-30.395Z" style="fill-rule:nonzero" transform="matrix(.07497 0 0 .09264 -2.298 -9.965)"/>
  <path d="M387.793 228.489h-5.25c2.75 0 3.82-1.91 2.37-4.25l-35.13-56.61c-1.44-2.34-4.88-4.25-7.63-4.25h5.25c2.75 0 6.189 1.91 7.63 4.25l35.13 56.61c1.45 2.34.38 4.25-2.37 4.25Z" style="fill-opacity:.1;fill-rule:nonzero" transform="matrix(.07497 0 0 .09264 -2.298 -9.965)"/>
  <path d="M476.346 349.982c0 2.75-2.25 5-5 5H40.654c-2.75 0-5-2.25-5-5v-19.135c0-2.75 2.25-5 5-5h430.691c2.75 0 5 2.25 5 5v19.135h.001Z" style="fill:#e5e1e8;fill-rule:nonzero" transform="matrix(.07497 0 0 .09264 -2.298 -9.965)"/>
  <path d="M471.346 359.982H40.654c-5.514 0-10-4.486-10-10v-19.135c0-5.514 4.486-10 10-10h430.691c5.514 0 10 4.486 10 10v19.135c.001 5.514-4.486 10-9.999 10Zm0-10v5-5ZM40.654 330.848v19.135h430.677l.015-19.135H40.654Z" style="fill-rule:nonzero" transform="matrix(.07497 0 0 .09264 -2.298 -9.965)"/>
  <path d="M476.275 330.846v19.139c0 2.75-2.25 5-5 5h-11.5c2.75 0 5-2.25 5-5v-19.139c0-2.75-2.25-5-5-5h11.5c2.75 0 5 2.25 5 5Z" style="fill-opacity:.1;fill-rule:nonzero" transform="matrix(.07497 0 0 .09264 -2.298 -9.965)"/>
  <circle cx="113.691" cy="354.984" r="44.444" style="fill:#383838" transform="matrix(.07497 0 0 .09264 -2.298 -9.965)"/>
  <path d="M113.691 404.428c-27.264 0-49.444-22.181-49.444-49.443 0-27.265 22.181-49.445 49.444-49.445s49.444 22.181 49.444 49.445c.001 27.262-22.18 49.443-49.444 49.443Zm0-88.889c-21.75 0-39.444 17.695-39.444 39.445 0 21.749 17.695 39.443 39.444 39.443 21.749 0 39.444-17.694 39.444-39.443.001-21.75-17.694-39.445-39.444-39.445Z" style="fill-rule:nonzero" transform="matrix(.07497 0 0 .09264 -2.298 -9.965)"/>
  <circle cx="113.692" cy="354.984" r="16.531" style="fill:#e5e1e8" transform="matrix(.07497 0 0 .09264 -2.298 -9.965)"/>
  <path d="M113.691 376.514c-11.872 0-21.53-9.658-21.53-21.529 0-11.872 9.658-21.531 21.53-21.531 11.873 0 21.531 9.659 21.531 21.531.001 11.87-9.658 21.529-21.531 21.529Zm0-33.061c-6.358 0-11.53 5.173-11.53 11.531 0 6.357 5.172 11.529 11.53 11.529s11.531-5.172 11.531-11.529c.001-6.358-5.172-11.531-11.531-11.531Z" style="fill-rule:nonzero" transform="matrix(.07497 0 0 .09264 -2.298 -9.965)"/>
  <circle cx="386.938" cy="354.984" r="44.444" style="fill:#383838" transform="matrix(.07497 0 0 .09264 -2.298 -9.965)"/>
  <path d="M386.939 404.428c-27.265 0-49.445-22.181-49.445-49.443 0-27.265 22.181-49.445 49.445-49.445 27.263 0 49.443 22.181 49.443 49.445.001 27.262-22.18 49.443-49.443 49.443Zm0-88.889c-21.75 0-39.445 17.695-39.445 39.445 0 21.749 17.695 39.443 39.445 39.443 21.749 0 39.443-17.694 39.443-39.443.001-21.75-17.694-39.445-39.443-39.445Z" style="fill-rule:nonzero" transform="matrix(.07497 0 0 .09264 -2.298 -9.965)"/>
  <circle cx="386.939" cy="354.984" r="16.531" style="fill:#e5e1e8" transform="matrix(.07497 0 0 .09264 -2.298 -9.965)"/>
  <path d="M386.939 376.514c-11.872 0-21.531-9.658-21.531-21.529 0-11.872 9.659-21.531 21.531-21.531 11.872 0 21.531 9.659 21.531 21.531.001 11.87-9.658 21.529-21.531 21.529Zm0-33.061c-6.358 0-11.531 5.173-11.531 11.531 0 6.357 5.173 11.529 11.531 11.529 6.358 0 11.531-5.172 11.531-11.529.001-6.358-5.172-11.531-11.531-11.531Z" style="fill-rule:nonzero" transform="matrix(.07497 0 0 .09264 -2.298 -9.965)"/>
  <path d="M463.144 255.5h-17.071c-2.75 0-5 2.25-5 5v18.441c0 2.75 2.25 5 5 5h17.071V255.5Z" style="fill:#fbda48;fill-rule:nonzero" transform="matrix(.07497 0 0 .09264 -2.298 -9.965)"/>
  <path d="M463.144 288.941h-17.07c-5.514 0-10-4.486-10-10V260.5c0-5.514 4.486-10 10-10h17.07c2.743 0 5 2.257 5 5v28.441c0 2.743-2.257 5-5 5ZM446.073 260.5v18.441h12.07V260.5h-12.07Z" style="fill-rule:nonzero" transform="matrix(.07497 0 0 .09264 -2.298 -9.965)"/>
  <path d="M347.558 134.902v8.157h-34.825v-8.157c0-9.617 7.796-17.412 17.413-17.412 4.814 0 9.154 1.945 12.311 5.102a17.342 17.342 0 0 1 5.101 12.31Z" style="fill:#0800d3;fill-rule:nonzero" transform="matrix(.07497 0 0 .09264 -2.298 -9.965)"/>
  <path d="M347.558 148.06h-34.825c-2.743 0-5-2.257-5-5v-8.157c0-12.358 10.055-22.412 22.413-22.412a22.277 22.277 0 0 1 15.846 6.565 22.269 22.269 0 0 1 6.566 15.847v8.157c0 2.76-2.239 5-5 5Zm-29.826-10h24.825v-3.157a12.326 12.326 0 0 0-3.637-8.774 12.325 12.325 0 0 0-8.775-3.638c-6.845 0-12.413 5.567-12.413 12.412v3.157Z" style="fill-rule:nonzero" transform="matrix(.07497 0 0 .09264 -2.298 -9.965)"/>
  <path d="M347.558 134.899v8.16h-6.38v-8.16c0-4.811-1.95-9.15-5.101-12.311a17.331 17.331 0 0 0-9.13-4.81c1.03-.19 2.101-.29 3.19-.29 4.819 0 9.16 1.95 12.31 5.1 3.16 3.161 5.111 7.501 5.111 12.311Z" style="fill-opacity:.1;fill-rule:nonzero" transform="matrix(.07497 0 0 .09264 -2.298 -9.965)"/>
  <path d="M335.749 255.166h-23.617c-2.743 0-5-2.257-5-5s2.257-5 5-5h23.617c2.743 0 5 2.257 5 5s-2.257 5-5 5Z" style="fill-rule:nonzero" transform="matrix(.07497 0 0 .09264 -2.298 -9.965)"/>
  <path d="M395.473 354.979c0-7.75-5.33-14.25-12.529-16.039 1.279-.32 2.619-.49 4-.49 9.129 0 16.529 7.398 16.529 16.529s-7.4 16.529-16.529 16.529c-1.381 0-2.721-.17-4-.49 7.199-1.789 12.529-8.289 12.529-16.039Z" style="fill-opacity:.2;fill-rule:nonzero" transform="matrix(.07497 0 0 .09264 -2.298 -9.965)"/>
  <path d="M431.383 354.979c0 24.551-19.891 44.449-44.439 44.449-1.351 0-2.681-.059-4-.18 22.67-2.02 40.439-21.07 40.439-44.27 0-23.189-17.77-42.24-40.439-44.26a43.79 43.79 0 0 1 4-.18c24.548.001 44.439 19.901 44.439 44.441Zm-309.157-.005c0-7.75-5.33-14.25-12.529-16.039 1.279-.32 2.619-.49 4-.49 9.129 0 16.529 7.398 16.529 16.529s-7.4 16.529-16.529 16.529c-1.381 0-2.721-.17-4-.49 7.199-1.789 12.529-8.289 12.529-16.039Z" style="fill-opacity:.2;fill-rule:nonzero" transform="matrix(.07497 0 0 .09264 -2.298 -9.965)"/>
  <path d="M158.136 354.974c0 24.551-19.891 44.449-44.439 44.449-1.351 0-2.681-.059-4-.18 22.67-2.02 40.439-21.07 40.439-44.27 0-23.189-17.77-42.24-40.439-44.26a43.79 43.79 0 0 1 4-.18c24.548.001 44.439 19.902 44.439 44.441Z" style="fill-opacity:.2;fill-rule:nonzero" transform="matrix(.07497 0 0 .09264 -2.298 -9.965)"/>
  <path d="M288.934 117.572v208.27h-20v-208.27c0-2.75-2.25-5-5-5h20c2.75 0 5 2.25 5 5Z" style="fill-opacity:.05;fill-rule:nonzero" transform="matrix(.07497 0 0 .09264 -2.298 -9.965)"/>
  <path d="M48.862 250.166h240.071v33.775H48.862z" style="fill:#ec2529;fill-rule:nonzero" transform="matrix(.07497 0 0 .09264 -2.298 -9.965)"/>
  <path d="M288.934 288.941H48.862c-2.743 0-5-2.257-5-5v-33.775c0-2.743 2.257-5 5-5h240.071c2.743 0 5 2.257 5 5v33.777c0 2.742-2.256 4.998-4.998 4.998h-.001Zm-235.072-10h230.071v-23.775H53.862v23.775Z" style="fill-rule:nonzero" transform="matrix(.07497 0 0 .09264 -2.298 -9.965)"/>
  <path d="M38.38 15.319c-.508 0-.959-.11-1.351-.331a2.396 2.396 0 0 1-.92-.911 2.613 2.613 0 0 1-.334-1.331c0-.505.111-.951.334-1.337.222-.387.529-.691.92-.911.392-.221.843-.331 1.351-.331.303 0 .582.045.838.137.255.091.483.215.681.373.198.158.363.34.494.546l-.797.494a1.322 1.322 0 0 0-.318-.343 1.594 1.594 0 0 0-.429-.233 1.393 1.393 0 0 0-.469-.083 1.534 1.534 0 0 0-1.403.81 1.79 1.79 0 0 0-.208.878c0 .326.068.617.203.873.136.255.327.455.573.6.247.145.532.218.857.218.252 0 .476-.05.673-.15.196-.1.351-.241.464-.422.113-.18.169-.389.169-.625l.928-.141c0 .469-.096.869-.289 1.201a1.915 1.915 0 0 1-.796.759c-.338.174-.729.26-1.171.26Zm.161-1.99v-.765h2.095v.608l-.528.157h-1.567Z" style="fill:#9c27b0;fill-rule:nonzero" transform="matrix(.4047 0 0 .4047 8.95 8.9)"/>
  <path d="M67.512 15.319c-.487 0-.918-.11-1.292-.331a2.362 2.362 0 0 1-.882-.911c-.213-.386-.32-.831-.32-1.334 0-.503.106-.948.319-1.334a2.34 2.34 0 0 1 .879-.911 2.476 2.476 0 0 1 1.287-.331c.343 0 .66.06.952.181.293.12.549.288.77.503.221.216.391.465.51.748l-.903.333a1.507 1.507 0 0 0-.32-.461 1.415 1.415 0 0 0-1.009-.413 1.407 1.407 0 0 0-1.3.81 1.908 1.908 0 0 0-.192.875c0 .33.065.623.194.878a1.435 1.435 0 0 0 1.319.813 1.328 1.328 0 0 0 1.006-.439 1.74 1.74 0 0 0 .318-.479l.903.333a2.342 2.342 0 0 1-1.282 1.285 2.451 2.451 0 0 1-.957.185Z" style="fill:#ff6f00;fill-rule:nonzero" transform="matrix(.4047 0 0 .4047 .122 8.9)"/>
  <path d="m40.057 22.351 1.43-4.982h.989l-1.487 4.982h-.932Zm-2.999 0-1.473-4.982h.989l1.416 4.982h-.932Zm.129 0 1.36-4.982h.882l-1.352 4.982h-.89Zm2.783 0-1.338-4.982h.882l1.388 4.982h-.932Z" style="fill:#0d47a1;fill-rule:nonzero" transform="matrix(.4047 0 0 .4047 8.616 8.707)"/>
  <path d="M68.897 22.351v-4.982h.972v4.982h-.972Zm-3.281 0v-4.986h.972v4.986h-.972Zm.724-2.103v-.891h3.018v.891H66.34Z" style="fill:#00bfa5;fill-rule:nonzero" transform="matrix(.4047 0 0 .4047 -.023 8.707)"/>
  <path d="M38.38 15.319c-.508 0-.959-.11-1.351-.331a2.396 2.396 0 0 1-.92-.911 2.613 2.613 0 0 1-.334-1.331c0-.505.111-.951.334-1.337.222-.387.529-.691.92-.911.392-.221.843-.331 1.351-.331.303 0 .582.045.838.137.255.091.483.215.681.373.198.158.363.34.494.546l-.797.494a1.322 1.322 0 0 0-.318-.343 1.594 1.594 0 0 0-.429-.233 1.393 1.393 0 0 0-.469-.083 1.534 1.534 0 0 0-1.403.81 1.79 1.79 0 0 0-.208.878c0 .326.068.617.203.873.136.255.327.455.573.6.247.145.532.218.857.218.252 0 .476-.05.673-.15.196-.1.351-.241.464-.422.113-.18.169-.389.169-.625l.928-.141c0 .469-.096.869-.289 1.201a1.915 1.915 0 0 1-.796.759c-.338.174-.729.26-1.171.26Zm.161-1.99v-.765h2.095v.608l-.528.157h-1.567Z" style="fill:#9c27b0;fill-rule:nonzero" transform="matrix(.36725 0 0 .36725 -10.39 1.43)"/>
  <path d="M67.512 15.319c-.487 0-.918-.11-1.292-.331a2.362 2.362 0 0 1-.882-.911c-.213-.386-.32-.831-.32-1.334 0-.503.106-.948.319-1.334a2.34 2.34 0 0 1 .879-.911 2.476 2.476 0 0 1 1.287-.331c.343 0 .66.06.952.181.293.12.549.288.77.503.221.216.391.465.51.748l-.903.333a1.507 1.507 0 0 0-.32-.461 1.415 1.415 0 0 0-1.009-.413 1.407 1.407 0 0 0-1.3.81 1.908 1.908 0 0 0-.192.875c0 .33.065.623.194.878a1.435 1.435 0 0 0 1.319.813 1.328 1.328 0 0 0 1.006-.439 1.74 1.74 0 0 0 .318-.479l.903.333a2.342 2.342 0 0 1-1.282 1.285 2.451 2.451 0 0 1-.957.185Z" style="fill:#ff6f00;fill-rule:nonzero" transform="matrix(.36725 0 0 .36725 -18.402 1.43)"/>
  <path d="m40.057 22.351 1.43-4.982h.989l-1.487 4.982h-.932Zm-2.999 0-1.473-4.982h.989l1.416 4.982h-.932Zm.129 0 1.36-4.982h.882l-1.352 4.982h-.89Zm2.783 0-1.338-4.982h.882l1.388 4.982h-.932Z" style="fill:#0d47a1;fill-rule:nonzero" transform="matrix(.36725 0 0 .36725 -10.693 1.256)"/>
  <path d="M68.897 22.351v-4.982h.972v4.982h-.972Zm-3.281 0v-4.986h.972v4.986h-.972Zm.724-2.103v-.891h3.018v.891H66.34Z" style="fill:#00bfa5;fill-rule:nonzero" transform="matrix(.36725 0 0 .36725 -18.533 1.256)"/>
  <path d="M37.959 12.274c-.566 0-1.066-.123-1.502-.368a2.667 2.667 0 0 1-1.025-1.013c-.247-.431-.37-.924-.37-1.482 0-.561.123-1.057.37-1.487.247-.43.589-.768 1.025-1.013.436-.246.936-.369 1.502-.369.337 0 .648.051.932.152.284.102.537.24.758.416.22.176.403.378.549.607l-.886.55a1.469 1.469 0 0 0-.354-.382 1.766 1.766 0 0 0-.477-.259 1.534 1.534 0 0 0-.522-.093c-.348 0-.657.08-.926.24-.269.16-.481.381-.635.661a2.001 2.001 0 0 0-.231.977c0 .364.075.687.226.971.151.284.364.507.638.668.274.162.591.243.952.243.281 0 .53-.056.749-.168a1.27 1.27 0 0 0 .516-.468c.126-.201.189-.433.189-.696l1.032-.157c0 .521-.107.967-.322 1.336-.214.37-.509.651-.885.844-.377.193-.811.29-1.303.29Zm.179-2.214v-.851h2.331v.676l-.587.175h-1.744Z" style="fill:#9c27b0;fill-rule:nonzero" transform="matrix(.99795 0 0 1 -.36 0)"/>
  <path d="M41.308 6.637h1.045v5.542h-1.045z" style="fill:#9c27b0;fill-rule:nonzero" transform="matrix(.99795 0 0 1 -.36 0)"/>
  <path d="m45.361 12.179-.031-.8v-1.203c0-.237-.025-.441-.076-.609a.796.796 0 0 0-.237-.392c-.108-.093-.255-.139-.439-.139a.957.957 0 0 0-.46.111.934.934 0 0 0-.348.34l-.918-.316c.074-.169.182-.334.324-.495.143-.161.329-.293.558-.396.23-.103.511-.154.844-.154.401 0 .735.076 1.001.229.267.153.464.368.594.646.129.277.191.605.186.985l-.024 2.193h-.974Zm-1.108.095c-.475 0-.843-.106-1.104-.317-.262-.211-.392-.509-.392-.894 0-.422.141-.74.423-.954.283-.214.68-.321 1.192-.321h1.005v.776h-.641c-.343 0-.581.041-.713.123a.383.383 0 0 0-.197.344c0 .116.052.207.158.273.105.066.253.099.443.099a.88.88 0 0 0 .463-.122.946.946 0 0 0 .321-.317.758.758 0 0 0 .119-.4h.253c0 .538-.102.958-.305 1.259-.203.301-.545.451-1.025.451Z" style="fill:#9c27b0;fill-rule:nonzero" transform="matrix(.99795 0 0 1 -.36 0)"/>
  <path d="M48.417 12.274c-.253 0-.491-.038-.712-.115a1.77 1.77 0 0 1-.586-.332 1.514 1.514 0 0 1-.396-.535l.895-.411c.079.126.187.236.324.328a.827.827 0 0 0 .475.139.884.884 0 0 0 .404-.075c.095-.051.142-.123.142-.218a.227.227 0 0 0-.114-.21 1.182 1.182 0 0 0-.313-.115l-.364-.095c-.38-.1-.68-.26-.899-.479a1.039 1.039 0 0 1-.328-.756c0-.406.13-.72.392-.942.261-.221.632-.332 1.112-.332.248 0 .479.037.693.111.213.073.397.176.55.308.153.132.258.285.316.459l-.862.396c-.037-.105-.127-.191-.27-.257a1.008 1.008 0 0 0-.427-.099.518.518 0 0 0-.329.091.302.302 0 0 0-.114.249c0 .069.036.126.11.171.074.045.18.083.317.114l.515.127c.258.063.465.165.621.305.156.14.269.295.34.467.072.172.107.339.107.503 0 .237-.07.447-.209.629-.14.182-.33.323-.57.424-.241.1-.514.15-.82.15Z" style="fill:#9c27b0;fill-rule:nonzero" transform="matrix(.99795 0 0 1 -.36 0)"/>
  <path d="M52.404 13.867c-.301 0-.567-.022-.797-.065a2.879 2.879 0 0 1-.585-.165 1.9 1.9 0 0 1-.385-.207l.407-.838c.076.04.174.088.294.144.119.055.264.103.434.145.17.041.367.061.589.061.208 0 .393-.041.556-.123a.881.881 0 0 0 .382-.38c.093-.171.139-.389.139-.653V8.221h1.045v3.527c0 .447-.084.829-.253 1.147a1.703 1.703 0 0 1-.719.724c-.31.165-.68.248-1.107.248Zm-.203-1.802c-.364 0-.68-.078-.947-.235a1.593 1.593 0 0 1-.622-.665 2.197 2.197 0 0 1-.22-1.009c0-.415.074-.774.22-1.076.147-.303.354-.537.622-.704a1.75 1.75 0 0 1 .947-.25c.316 0 .59.083.822.25.232.167.411.403.538.708.126.306.189.669.189 1.091 0 .383-.063.716-.189.999a1.507 1.507 0 0 1-.538.658 1.437 1.437 0 0 1-.822.233Zm.3-.875c.18 0 .337-.047.471-.139a.929.929 0 0 0 .312-.379c.074-.161.111-.344.111-.55 0-.21-.038-.395-.114-.554a.919.919 0 0 0-.314-.374.837.837 0 0 0-.474-.134.901.901 0 0 0-.491.134.912.912 0 0 0-.331.374 1.273 1.273 0 0 0-.124.554c.003.206.045.389.125.55a.894.894 0 0 0 .829.518Z" style="fill:#9c27b0;fill-rule:nonzero" transform="matrix(.99795 0 0 1 -.36 0)"/>
  <path d="M57.096 12.274c-.405 0-.764-.088-1.076-.265a1.919 1.919 0 0 1-.734-.732 2.134 2.134 0 0 1-.266-1.077c0-.407.087-.765.261-1.077.175-.311.418-.555.73-.732a2.129 2.129 0 0 1 1.068-.265c.405 0 .764.088 1.076.265.312.177.556.421.73.732.175.312.262.67.262 1.077 0 .406-.087.765-.261 1.077a1.905 1.905 0 0 1-.726.732c-.31.177-.664.265-1.064.265Zm-.001-.963a.92.92 0 0 0 .857-.534 1.25 1.25 0 0 0 .127-.577c0-.218-.043-.411-.127-.577a.953.953 0 0 0-.871-.535.946.946 0 0 0-.515.142.989.989 0 0 0-.351.392 1.264 1.264 0 0 0-.127.577c0 .218.043.41.129.576a.96.96 0 0 0 .878.536Z" style="fill:#9c27b0;fill-rule:nonzero" transform="matrix(.99795 0 0 1 -.36 0)"/>
  <path d="m63.446 12.179 1.311-3.958h1.064l-1.35 3.958h-1.025Zm-2.631 0 1.266-3.958h.908l-1.245 3.958h-.929Zm-.103 0-1.346-3.958h1.064l1.259 3.958h-.977Zm2.729 0-1.236-3.958h.907l1.259 3.958h-.93Z" style="fill:#9c27b0;fill-rule:nonzero" transform="matrix(.99795 0 0 1 -.36 0)"/>
  <path d="M70.365 12.274c-.541 0-1.02-.123-1.437-.368a2.622 2.622 0 0 1-.98-1.013c-.238-.431-.357-.925-.357-1.485 0-.559.119-1.054.355-1.484.237-.43.562-.768.978-1.013.415-.246.892-.369 1.432-.369a2.692 2.692 0 0 1 1.916.762c.246.24.435.517.566.831l-1.003.371a1.7 1.7 0 0 0-.357-.513 1.597 1.597 0 0 0-1.122-.46c-.322 0-.608.08-.858.24a1.65 1.65 0 0 0-.589.661 2.132 2.132 0 0 0-.213.974c0 .368.072.693.216.976.143.284.342.505.596.665.254.16.544.24.872.24.227 0 .434-.043.621-.129.187-.086.353-.206.497-.359.144-.154.262-.331.354-.533l1.004.371a2.603 2.603 0 0 1-1.425 1.429 2.748 2.748 0 0 1-1.066.206Z" style="fill:#ff6f00;fill-rule:nonzero" transform="matrix(.99795 0 0 1 -.36 0)"/>
  <path d="M73.467 12.179V6.637h1.045v5.542h-1.045Zm2.624 0v-2.027h1.045v2.027h-1.045Zm0-2.027c0-.267-.031-.475-.093-.624a.634.634 0 0 0-.258-.321.794.794 0 0 0-.389-.101c-.27-.007-.477.076-.622.247-.145.171-.217.42-.217.749h-.35c0-.419.062-.776.187-1.071.124-.294.299-.519.522-.673.224-.155.486-.232.786-.232.315 0 .584.063.804.191.221.127.389.323.504.589.116.266.173.61.171 1.031v.215h-1.045Z" style="fill:#ff6f00;fill-rule:nonzero" transform="matrix(.99795 0 0 1 -.36 0)"/>
  <path d="M77.907 12.179V8.221h1.045v3.958h-1.045Zm.522-4.6a.58.58 0 0 1-.419-.178.569.569 0 0 1-.182-.423.57.57 0 0 1 .182-.424.584.584 0 0 1 .843 0c.119.119.178.26.178.424a.576.576 0 0 1-.178.423.578.578 0 0 1-.424.178Z" style="fill:#ff6f00;fill-rule:nonzero" transform="matrix(.99795 0 0 1 -.36 0)"/>
  <path d="M79.585 6.637h1.045v5.542h-1.045z" style="fill:#ff6f00;fill-rule:nonzero" transform="matrix(.99795 0 0 1 -.36 0)"/>
  <path d="m84.064 12.179-.052-.736V6.637h1.045v5.542h-.993Zm-1.241.095a1.74 1.74 0 0 1-.948-.253 1.675 1.675 0 0 1-.621-.722c-.147-.313-.22-.679-.22-1.099 0-.425.073-.793.22-1.103.147-.31.354-.549.621-.718a1.74 1.74 0 0 1 .948-.253c.331 0 .612.084.843.253.231.169.406.408.526.718s.18.678.18 1.103c0 .42-.06.786-.18 1.099a1.56 1.56 0 0 1-.526.722c-.231.169-.512.253-.843.253Zm.266-.959c.18 0 .341-.048.481-.144a.967.967 0 0 0 .328-.394c.079-.167.119-.36.119-.577 0-.218-.04-.41-.119-.577a.948.948 0 0 0-.328-.392.856.856 0 0 0-.489-.141.89.89 0 0 0-.496.141.959.959 0 0 0-.34.392 1.335 1.335 0 0 0-.128.577c.003.217.046.41.13.577a.98.98 0 0 0 .344.394.886.886 0 0 0 .498.144Z" style="fill:#ff6f00;fill-rule:nonzero" transform="matrix(.99795 0 0 1 -.36 0)"/>
  <path d="M86.59 10.1c0-.427.083-.781.251-1.061.167-.279.381-.488.642-.627.26-.138.533-.207.818-.207v1.01c-.241 0-.469.03-.683.089-.214.06-.387.155-.519.286a.684.684 0 0 0-.199.51h-.31Zm-.735 2.079V8.221H86.9v3.958h-1.045Z" style="fill:#ff6f00;fill-rule:nonzero" transform="matrix(.99795 0 0 1 -.36 0)"/>
  <path d="M90.193 12.274c-.39 0-.736-.088-1.037-.265a1.895 1.895 0 0 1-.708-.732 2.194 2.194 0 0 1-.257-1.077c0-.407.088-.765.265-1.077.177-.311.419-.555.728-.732a2.104 2.104 0 0 1 1.065-.265c.348 0 .669.091.962.273.293.182.527.448.704.799.177.351.266.778.266 1.279H89.18l.095-.095c0 .195.049.365.147.511a.952.952 0 0 0 .38.332c.155.077.323.115.502.115a.93.93 0 0 0 .531-.139.923.923 0 0 0 .316-.36l.935.364a1.94 1.94 0 0 1-.432.574 1.801 1.801 0 0 1-.629.368c-.243.085-.52.127-.832.127Zm-.862-2.478-.096-.095h1.908l-.087.095a.716.716 0 0 0-.134-.455.785.785 0 0 0-.329-.249.986.986 0 0 0-.376-.08c-.121 0-.251.027-.388.08a.86.86 0 0 0-.352.249c-.098.113-.146.265-.146.455Z" style="fill:#ff6f00;fill-rule:nonzero" transform="matrix(.99795 0 0 1 -.36 0)"/>
  <path d="M92.703 12.179V8.221h.985l.06.728v3.23h-1.045Zm2.624 0v-2.027h1.045v2.027h-1.045Zm0-2.027c0-.267-.031-.475-.093-.624a.634.634 0 0 0-.258-.321.794.794 0 0 0-.389-.101c-.27-.007-.477.076-.622.247-.145.171-.217.42-.217.749h-.35c0-.419.062-.776.187-1.071.124-.294.299-.519.522-.673.224-.155.486-.232.786-.232.315 0 .583.063.804.191.221.127.389.323.504.589.116.266.173.61.171 1.031v.215h-1.045Z" style="fill:#ff6f00;fill-rule:nonzero" transform="matrix(.99795 0 0 1 -.36 0)"/>
  <path d="m97.223 8.537-.11-2.026h.989l-.111 2.026h-.768Z" style="fill:#ff6f00;fill-rule:nonzero" transform="matrix(.99795 0 0 1 -.36 0)"/>
  <path d="M100.01 12.274c-.253 0-.491-.038-.712-.115a1.77 1.77 0 0 1-.586-.332 1.514 1.514 0 0 1-.396-.535l.895-.411c.079.126.187.236.324.328a.827.827 0 0 0 .475.139.884.884 0 0 0 .404-.075c.095-.051.142-.123.142-.218a.227.227 0 0 0-.114-.21 1.182 1.182 0 0 0-.313-.115l-.364-.095c-.38-.1-.68-.26-.899-.479a1.039 1.039 0 0 1-.328-.756c0-.406.13-.72.391-.942.262-.221.632-.332 1.113-.332.248 0 .479.037.692.111.214.073.398.176.551.308.153.132.258.285.316.459l-.863.396c-.037-.105-.126-.191-.269-.257a1.008 1.008 0 0 0-.427-.099.518.518 0 0 0-.329.091.303.303 0 0 0-.115.249c0 .069.037.126.111.171.074.045.18.083.317.114l.515.127c.258.063.465.165.621.305.156.14.269.295.34.467.072.172.107.339.107.503 0 .237-.07.447-.21.629a1.358 1.358 0 0 1-.57.424c-.24.1-.513.15-.819.15Z" style="fill:#ff6f00;fill-rule:nonzero" transform="matrix(.99795 0 0 1 -.36 0)"/>
  <path d="m39.825 20.096 1.591-5.542h1.1l-1.655 5.542h-1.036Zm-3.337 0-1.638-5.542h1.1l1.575 5.542h-1.037Zm.144 0 1.513-5.542h.981l-1.504 5.542h-.99Zm3.096 0-1.488-5.542h.981l1.544 5.542h-1.037Z" style="fill:#0d47a1;fill-rule:nonzero" transform="matrix(.99795 0 0 1 -.36 0)"/>
  <path d="M44.229 20.191c-.39 0-.736-.089-1.037-.265a1.883 1.883 0 0 1-.708-.733 2.188 2.188 0 0 1-.258-1.076c0-.407.089-.766.266-1.077.176-.312.419-.556.728-.732a2.105 2.105 0 0 1 1.065-.266c.348 0 .669.091.962.274.292.182.527.448.704.799.177.351.265.777.265 1.279h-3l.095-.095c0 .195.049.365.146.51a.976.976 0 0 0 .38.333c.156.076.324.115.503.115a.94.94 0 0 0 .531-.139.923.923 0 0 0 .316-.36l.934.364a1.92 1.92 0 0 1-.431.574 1.801 1.801 0 0 1-.629.368c-.243.084-.52.127-.832.127Zm-.863-2.478-.095-.095h1.908l-.087.095a.716.716 0 0 0-.134-.455.802.802 0 0 0-.329-.25.988.988 0 0 0-.376-.079c-.121 0-.251.026-.388.079a.866.866 0 0 0-.352.25.67.67 0 0 0-.147.455Z" style="fill:#0d47a1;fill-rule:nonzero" transform="matrix(.99795 0 0 1 -.36 0)"/>
  <path d="M46.739 14.554h1.045v5.542h-1.045z" style="fill:#0d47a1;fill-rule:nonzero" transform="matrix(.99795 0 0 1 -.36 0)"/>
  <path d="M48.401 14.554h1.045v5.542h-1.045z" style="fill:#0d47a1;fill-rule:nonzero" transform="matrix(.99795 0 0 1 -.36 0)"/>
  <path d="M50.064 20.096v-3.959h.985l.06.729v3.23h-1.045Zm2.623 0v-2.027h1.045v2.027h-1.045Zm0-2.027c0-.267-.03-.475-.092-.625a.635.635 0 0 0-.258-.32.797.797 0 0 0-.389-.102c-.27-.006-.478.076-.622.247-.145.171-.217.421-.217.749h-.35c0-.419.062-.775.187-1.07.124-.294.298-.519.522-.674.224-.154.486-.232.786-.232.315 0 .583.064.804.191.221.127.389.324.504.59.116.266.173.61.17 1.031v.215h-1.045Z" style="fill:#0d47a1;fill-rule:nonzero" transform="matrix(.99795 0 0 1 -.36 0)"/>
  <path d="M56.239 20.191c-.391 0-.736-.089-1.037-.265a1.893 1.893 0 0 1-.709-.733 2.198 2.198 0 0 1-.257-1.076c0-.407.088-.766.265-1.077.177-.312.42-.556.728-.732a2.105 2.105 0 0 1 1.065-.266c.349 0 .669.091.962.274.293.182.528.448.705.799.177.351.265.777.265 1.279h-3l.095-.095c0 .195.048.365.146.51a.969.969 0 0 0 .38.333c.156.076.323.115.503.115a.934.934 0 0 0 .53-.139.926.926 0 0 0 .317-.36l.934.364a1.94 1.94 0 0 1-.432.574 1.783 1.783 0 0 1-.629.368c-.243.084-.52.127-.831.127Zm-.863-2.478-.095-.095h1.908l-.087.095c0-.19-.045-.342-.135-.455a.8.8 0 0 0-.328-.25.992.992 0 0 0-.376-.079c-.122 0-.251.026-.388.079a.87.87 0 0 0-.353.25.676.676 0 0 0-.146.455Z" style="fill:#0d47a1;fill-rule:nonzero" transform="matrix(.99795 0 0 1 -.36 0)"/>
  <path d="M60.229 20.191c-.253 0-.491-.039-.713-.115a1.768 1.768 0 0 1-.585-.333 1.51 1.51 0 0 1-.396-.534l.894-.412c.079.127.188.237.325.329a.831.831 0 0 0 .475.138.884.884 0 0 0 .404-.075c.095-.05.142-.122.142-.217a.226.226 0 0 0-.115-.21 1.16 1.16 0 0 0-.312-.115l-.365-.095c-.38-.1-.679-.26-.898-.479a1.04 1.04 0 0 1-.329-.756c0-.406.131-.72.392-.942.261-.222.632-.333 1.113-.333a2.1 2.1 0 0 1 .692.111c.214.074.397.177.55.309.153.132.259.285.317.459l-.863.396c-.037-.106-.126-.191-.269-.257a1.008 1.008 0 0 0-.427-.099c-.143 0-.253.03-.329.091a.299.299 0 0 0-.115.249c0 .069.037.125.111.17.074.045.179.083.317.115l.514.127c.259.063.466.165.622.305a1.307 1.307 0 0 1 .447.969c0 .238-.07.448-.21.63a1.36 1.36 0 0 1-.57.423c-.24.101-.513.151-.819.151Z" style="fill:#0d47a1;fill-rule:nonzero" transform="matrix(.99795 0 0 1 -.36 0)"/>
  <path d="M63.918 20.191c-.253 0-.491-.039-.712-.115a1.773 1.773 0 0 1-.586-.333 1.51 1.51 0 0 1-.396-.534l.894-.412c.08.127.188.237.325.329a.833.833 0 0 0 .475.138.884.884 0 0 0 .404-.075c.095-.05.142-.122.142-.217a.226.226 0 0 0-.115-.21 1.16 1.16 0 0 0-.312-.115l-.364-.095c-.38-.1-.68-.26-.899-.479a1.039 1.039 0 0 1-.328-.756c0-.406.13-.72.391-.942.262-.222.632-.333 1.113-.333.248 0 .479.037.692.111.214.074.398.177.551.309.153.132.258.285.316.459l-.863.396c-.037-.106-.126-.191-.269-.257a1.008 1.008 0 0 0-.427-.099.518.518 0 0 0-.329.091.302.302 0 0 0-.115.249c0 .069.037.125.111.17.074.045.18.083.317.115l.514.127c.259.063.466.165.622.305.156.139.269.295.34.467.072.171.107.339.107.502 0 .238-.07.448-.21.63a1.348 1.348 0 0 1-.57.423c-.24.101-.513.151-.819.151Z" style="fill:#0d47a1;fill-rule:nonzero" transform="matrix(.99795 0 0 1 -.36 0)"/>
  <path d="M71.906 20.096v-5.542h1.081v5.542h-1.081Zm-3.65 0v-5.547h1.082v5.547h-1.082Zm.806-2.339v-.991h3.357v.991h-3.357Z" style="fill:#00bfa5;fill-rule:nonzero" transform="matrix(.99795 0 0 1 -.36 0)"/>
  <path d="M75.922 20.191c-.405 0-.764-.089-1.076-.265a1.917 1.917 0 0 1-.735-.733 2.138 2.138 0 0 1-.265-1.076c0-.407.087-.766.261-1.077.175-.312.418-.556.73-.732a2.126 2.126 0 0 1 1.068-.266c.405 0 .764.089 1.076.266.312.176.556.42.73.732.175.311.262.67.262 1.077 0 .406-.087.765-.261 1.076a1.9 1.9 0 0 1-.726.733c-.31.176-.664.265-1.064.265Zm-.001-.963a.92.92 0 0 0 .857-.534c.084-.167.127-.359.127-.577 0-.219-.043-.411-.127-.578a.979.979 0 0 0-.353-.392.953.953 0 0 0-.518-.142.938.938 0 0 0-.866.534 1.247 1.247 0 0 0-.127.576c0 .219.043.411.128.577a.998.998 0 0 0 .357.393.967.967 0 0 0 .522.143Z" style="fill:#00bfa5;fill-rule:nonzero" transform="matrix(.99795 0 0 1 -.36 0)"/>
  <path d="M80.123 20.191c-.253 0-.49-.039-.712-.115a1.773 1.773 0 0 1-.586-.333 1.51 1.51 0 0 1-.396-.534l.895-.412c.079.127.187.237.324.329a.836.836 0 0 0 .475.138.88.88 0 0 0 .404-.075c.095-.05.143-.122.143-.217a.228.228 0 0 0-.115-.21 1.182 1.182 0 0 0-.313-.115l-.364-.095c-.38-.1-.68-.26-.899-.479a1.039 1.039 0 0 1-.328-.756c0-.406.131-.72.392-.942.261-.222.632-.333 1.112-.333.248 0 .479.037.693.111.214.074.397.177.55.309.153.132.259.285.317.459l-.863.396c-.037-.106-.127-.191-.269-.257a1.012 1.012 0 0 0-.428-.099.515.515 0 0 0-.328.091.299.299 0 0 0-.115.249c0 .069.037.125.111.17.073.045.179.083.316.115l.515.127c.258.063.466.165.621.305a1.292 1.292 0 0 1 .448.969c0 .238-.07.448-.21.63a1.36 1.36 0 0 1-.57.423c-.24.101-.513.151-.82.151Z" style="fill:#00bfa5;fill-rule:nonzero" transform="matrix(.99795 0 0 1 -.36 0)"/>
  <path d="M82.372 21.679v-5.542h.985l.06.729v4.813h-1.045Zm2.239-1.488c-.33 0-.61-.085-.842-.254a1.55 1.55 0 0 1-.527-.722 3.052 3.052 0 0 1-.18-1.098c0-.426.06-.793.18-1.103.12-.31.295-.549.527-.718a1.39 1.39 0 0 1 .842-.254c.364 0 .68.085.947.254.268.169.475.408.622.718.146.31.22.677.22 1.103 0 .42-.074.786-.22 1.098a1.664 1.664 0 0 1-.622.722 1.734 1.734 0 0 1-.947.254Zm-.266-.96a.885.885 0 0 0 .5-.143c.144-.096.259-.227.344-.394.085-.168.128-.36.128-.578a1.29 1.29 0 0 0-.123-.576.905.905 0 0 0-.841-.533.855.855 0 0 0-.485.141.94.94 0 0 0-.332.392c-.08.168-.119.36-.119.577 0 .217.039.41.119.578a.953.953 0 0 0 .328.394c.139.095.3.142.481.142Z" style="fill:#00bfa5;fill-rule:nonzero" transform="matrix(.99795 0 0 1 -.36 0)"/>
  <path d="M87.043 20.096v-3.959h1.045v3.959h-1.045Zm.522-4.6a.58.58 0 0 1-.419-.178.572.572 0 0 1-.183-.424c0-.163.061-.304.183-.423a.58.58 0 0 1 .419-.178c.164 0 .305.059.424.178.118.119.178.26.178.423 0 .164-.06.305-.178.424a.578.578 0 0 1-.424.178Z" style="fill:#00bfa5;fill-rule:nonzero" transform="matrix(.99795 0 0 1 -.457 0)"/>
  <path d="M208.835 171.692v17.391c0 2.75-2.25 5-5 5h-24.229v24.229c0 2.75-2.25 5-5 5h-17.4c-2.75 0-5-2.25-5-5v-24.229h-24.23c-2.75 0-5-2.25-5-5v-17.391c0-2.75 2.25-5 5-5h24.23v-24.229c0-2.75 2.25-5 5-5h17.4c2.75 0 5 2.25 5 5v24.229h24.229c2.75 0 5 2.25 5 5Z" style="fill:#00bfa5;fill-rule:nonzero" transform="matrix(.03962 0 0 .04865 83.031 8.989)"/>
  <path d="M174.605 228.313h-17.4c-5.514 0-10-4.486-10-10v-19.229h-19.23c-5.514 0-10-4.486-10-10v-17.391c0-5.515 4.486-10 10-10h19.23v-19.229c0-5.515 4.486-10 10-10h17.4c5.514 0 10 4.485 10 10v19.229h19.229c5.514 0 10 4.485 10 10v17.391c0 5.514-4.486 10-10 10h-19.229v19.229c0 5.513-4.485 10-10 10Zm0-10v5-5Zm-46.63-46.621v17.391h24.23c2.743 0 5 2.257 5 5v24.229h17.386l.015-24.229c0-2.743 2.257-5 5-5h24.229v-17.391h-24.229c-2.743 0-5-2.257-5-5v-24.229h-17.4v24.229c0 2.743-2.257 5-5 5h-24.231Z" style="fill-rule:nonzero" transform="matrix(.03962 0 0 .04865 83.031 8.989)"/>
  <path d="m94.025 20.096-.032-.8v-1.203c0-.238-.025-.441-.075-.61a.8.8 0 0 0-.237-.392c-.108-.092-.255-.138-.44-.138a.95.95 0 0 0-.459.111.934.934 0 0 0-.348.34l-.918-.317c.073-.169.182-.333.324-.494.143-.161.329-.293.558-.396.23-.103.511-.155.843-.155.401 0 .735.077 1.002.23.266.153.464.368.594.645.129.277.191.606.186.986l-.024 2.193h-.974Zm-1.108.095c-.475 0-.843-.106-1.105-.317-.261-.211-.391-.509-.391-.895 0-.422.141-.74.423-.953.282-.214.68-.321 1.192-.321h1.005v.776H93.4c-.343 0-.581.041-.713.122a.386.386 0 0 0-.198.345c0 .116.053.207.159.273.105.066.253.099.443.099a.873.873 0 0 0 .463-.123.943.943 0 0 0 .321-.316.76.76 0 0 0 .118-.4h.254c0 .538-.102.958-.305 1.258-.203.301-.545.452-1.025.452Z" style="fill:#00bfa5;fill-rule:nonzero" transform="matrix(.99795 0 0 1 .579 0)"/>
  <path d="M95.601 14.554h1.045v5.542h-1.045z" style="fill:#00bfa5;fill-rule:nonzero" transform="matrix(.99795 0 0 1 .93 .095)"/>
</svg>
