<svg xmlns="http://www.w3.org/2000/svg" xml:space="preserve" style="fill-rule:evenodd;clip-rule:evenodd;stroke-linejoin:round;stroke-miterlimit:2" viewBox="0 0 34 28">
  <path d="M283.934 112.572H53.862c-2.75 0-5 2.25-5 5v208.275h4.981l.019.002h230.071l.02-.002h4.98V117.572c.001-2.75-2.249-5-4.999-5Z" style="fill:#f8f9fb;fill-rule:nonzero" transform="matrix(.07497 0 0 .09264 -2.298 -9.965)"/>
  <path d="M283.934 330.85H53.862l-.138-.002h-4.862c-2.743 0-5-2.257-5-5V117.572c0-5.515 4.486-10 10-10h230.071c5.514 0 10 4.485 10 10v208.275c0 2.743-2.257 5-5 5h-4.862a3.13 3.13 0 0 1-.137.003Zm-229.952-10h229.833l.118-.002V117.572H53.862v203.275l.12.003Zm361.321 9.509c-2.743 0-5-2.257-5-5v-4.59a5 5 0 0 1 5-5 5 5 0 0 1 5 5v4.59c0 2.743-2.257 5-5 5Z" style="fill-rule:nonzero" transform="matrix(.07497 0 0 .09264 -2.298 -9.965)"/>
  <path d="M208.835 171.692v17.391c0 2.75-2.25 5-5 5h-24.229v24.229c0 2.75-2.25 5-5 5h-17.4c-2.75 0-5-2.25-5-5v-24.229h-24.23c-2.75 0-5-2.25-5-5v-17.391c0-2.75 2.25-5 5-5h24.23v-24.229c0-2.75 2.25-5 5-5h17.4c2.75 0 5 2.25 5 5v24.229h24.229c2.75 0 5 2.25 5 5Z" style="fill:#ec2529;fill-rule:nonzero" transform="matrix(.07497 0 0 .09264 1.52 -9.396)"/>
  <path d="M174.605 228.313h-17.4c-5.514 0-10-4.486-10-10v-19.229h-19.23c-5.514 0-10-4.486-10-10v-17.391c0-5.515 4.486-10 10-10h19.23v-19.229c0-5.515 4.486-10 10-10h17.4c5.514 0 10 4.485 10 10v19.229h19.229c5.514 0 10 4.485 10 10v17.391c0 5.514-4.486 10-10 10h-19.229v19.229c0 5.513-4.485 10-10 10Zm0-10v5-5Zm-46.63-46.621v17.391h24.23c2.743 0 5 2.257 5 5v24.229h17.386l.015-24.229c0-2.743 2.257-5 5-5h24.229v-17.391h-24.229c-2.743 0-5-2.257-5-5v-24.229h-17.4v24.229c0 2.743-2.257 5-5 5h-24.231Z" style="fill-rule:nonzero" transform="matrix(.07497 0 0 .09264 1.52 -9.396)"/>
  <path d="M443.883 228.84h-28.579l-43.79-66.418-.021-.037-8.85-13.425-1.14-1.73c0-.002-.004-.003-.004-.004-1.518-2.292-4.999-4.166-7.745-4.166h-64.82v182.79h174.21v-74.54c0-12.411-8.621-22.47-19.261-22.47Z" style="fill:#f8f9fb;fill-rule:nonzero" transform="matrix(.07497 0 0 .09264 -2.298 -9.965)"/>
  <path d="M463.144 330.85h-174.21c-2.743 0-5-2.257-5-5V143.06c0-2.743 2.257-5 5-5h64.819c4.41 0 9.375 2.649 11.854 6.314l.071.105 9.988 15.153c.027.042.055.084.081.127l.003.005 42.245 64.075h25.887c13.377 0 24.261 12.322 24.261 27.47V325.85c0 2.743-2.256 4.999-4.999 5Zm-169.21-10h164.21v-69.54c0-9.633-6.397-17.47-14.261-17.47h-28.579a5.007 5.007 0 0 1-4.175-2.248l-43.79-66.418c-.027-.042-.055-.084-.081-.127l-.003-.006-9.873-14.979-.052-.077c-.596-.899-2.501-1.926-3.576-1.926h-59.82V320.85Z" style="fill-rule:nonzero" transform="matrix(.07497 0 0 .09264 -2.298 -9.965)"/>
  <path d="M463.144 251.307v74.539h-10.5v-74.539c0-12.41-8.62-22.47-19.26-22.47h10.5c10.639 0 19.26 10.059 19.26 22.47Z" style="fill-opacity:.05;fill-rule:nonzero" transform="matrix(.07497 0 0 .09264 -2.298 -9.965)"/>
  <path d="M390.286 224.241c1.449 2.337.386 4.249-2.364 4.249h-70.79c-2.75 0-5-2.25-5-5v-55.112c0-2.75 2.25-5 5-5h30.396c2.75 0 6.187 1.912 7.636 4.248l35.122 56.615Z" style="fill:#a8ceed;fill-rule:nonzero" transform="matrix(.07497 0 0 .09264 -2.298 -9.965)"/>
  <path d="M387.922 233.49h-70.79c-5.514 0-10-4.486-10-10v-55.112c0-5.515 4.486-10 10-10h30.396c4.51 0 9.508 2.781 11.885 6.612l35.123 56.615c1.676 2.702 1.862 5.643.513 8.067-1.351 2.427-3.948 3.818-7.127 3.818Zm-70.79-65.113v55.113h66.803l-33.021-53.229c-.535-.862-2.371-1.884-3.387-1.884h-30.395Z" style="fill-rule:nonzero" transform="matrix(.07497 0 0 .09264 -2.298 -9.965)"/>
  <path d="M387.793 228.489h-5.25c2.75 0 3.82-1.91 2.37-4.25l-35.13-56.61c-1.44-2.34-4.88-4.25-7.63-4.25h5.25c2.75 0 6.189 1.91 7.63 4.25l35.13 56.61c1.45 2.34.38 4.25-2.37 4.25Z" style="fill-opacity:.1;fill-rule:nonzero" transform="matrix(.07497 0 0 .09264 -2.298 -9.965)"/>
  <path d="M476.346 349.982c0 2.75-2.25 5-5 5H40.654c-2.75 0-5-2.25-5-5v-19.135c0-2.75 2.25-5 5-5h430.691c2.75 0 5 2.25 5 5v19.135h.001Z" style="fill:#e5e1e8;fill-rule:nonzero" transform="matrix(.07497 0 0 .09264 -2.298 -9.965)"/>
  <path d="M471.346 359.982H40.654c-5.514 0-10-4.486-10-10v-19.135c0-5.514 4.486-10 10-10h430.691c5.514 0 10 4.486 10 10v19.135c.001 5.514-4.486 10-9.999 10Zm0-10v5-5ZM40.654 330.848v19.135h430.677l.015-19.135H40.654Z" style="fill-rule:nonzero" transform="matrix(.07497 0 0 .09264 -2.298 -9.965)"/>
  <path d="M476.275 330.846v19.139c0 2.75-2.25 5-5 5h-11.5c2.75 0 5-2.25 5-5v-19.139c0-2.75-2.25-5-5-5h11.5c2.75 0 5 2.25 5 5Z" style="fill-opacity:.1;fill-rule:nonzero" transform="matrix(.07497 0 0 .09264 -2.298 -9.965)"/>
  <circle cx="113.691" cy="354.984" r="44.444" style="fill:#383838" transform="matrix(.07497 0 0 .09264 -2.298 -9.965)"/>
  <path d="M113.691 404.428c-27.264 0-49.444-22.181-49.444-49.443 0-27.265 22.181-49.445 49.444-49.445s49.444 22.181 49.444 49.445c.001 27.262-22.18 49.443-49.444 49.443Zm0-88.889c-21.75 0-39.444 17.695-39.444 39.445 0 21.749 17.695 39.443 39.444 39.443 21.749 0 39.444-17.694 39.444-39.443.001-21.75-17.694-39.445-39.444-39.445Z" style="fill-rule:nonzero" transform="matrix(.07497 0 0 .09264 -2.298 -9.965)"/>
  <circle cx="113.692" cy="354.984" r="16.531" style="fill:#e5e1e8" transform="matrix(.07497 0 0 .09264 -2.298 -9.965)"/>
  <path d="M113.691 376.514c-11.872 0-21.53-9.658-21.53-21.529 0-11.872 9.658-21.531 21.53-21.531 11.873 0 21.531 9.659 21.531 21.531.001 11.87-9.658 21.529-21.531 21.529Zm0-33.061c-6.358 0-11.53 5.173-11.53 11.531 0 6.357 5.172 11.529 11.53 11.529s11.531-5.172 11.531-11.529c.001-6.358-5.172-11.531-11.531-11.531Z" style="fill-rule:nonzero" transform="matrix(.07497 0 0 .09264 -2.298 -9.965)"/>
  <circle cx="386.938" cy="354.984" r="44.444" style="fill:#383838" transform="matrix(.07497 0 0 .09264 -2.298 -9.965)"/>
  <path d="M386.939 404.428c-27.265 0-49.445-22.181-49.445-49.443 0-27.265 22.181-49.445 49.445-49.445 27.263 0 49.443 22.181 49.443 49.445.001 27.262-22.18 49.443-49.443 49.443Zm0-88.889c-21.75 0-39.445 17.695-39.445 39.445 0 21.749 17.695 39.443 39.445 39.443 21.749 0 39.443-17.694 39.443-39.443.001-21.75-17.694-39.445-39.443-39.445Z" style="fill-rule:nonzero" transform="matrix(.07497 0 0 .09264 -2.298 -9.965)"/>
  <circle cx="386.939" cy="354.984" r="16.531" style="fill:#e5e1e8" transform="matrix(.07497 0 0 .09264 -2.298 -9.965)"/>
  <path d="M386.939 376.514c-11.872 0-21.531-9.658-21.531-21.529 0-11.872 9.659-21.531 21.531-21.531 11.872 0 21.531 9.659 21.531 21.531.001 11.87-9.658 21.529-21.531 21.529Zm0-33.061c-6.358 0-11.531 5.173-11.531 11.531 0 6.357 5.173 11.529 11.531 11.529 6.358 0 11.531-5.172 11.531-11.529.001-6.358-5.172-11.531-11.531-11.531Z" style="fill-rule:nonzero" transform="matrix(.07497 0 0 .09264 -2.298 -9.965)"/>
  <path d="M463.144 255.5h-17.071c-2.75 0-5 2.25-5 5v18.441c0 2.75 2.25 5 5 5h17.071V255.5Z" style="fill:#fbda48;fill-rule:nonzero" transform="matrix(.07497 0 0 .09264 -2.298 -9.965)"/>
  <path d="M463.144 288.941h-17.07c-5.514 0-10-4.486-10-10V260.5c0-5.514 4.486-10 10-10h17.07c2.743 0 5 2.257 5 5v28.441c0 2.743-2.257 5-5 5ZM446.073 260.5v18.441h12.07V260.5h-12.07Z" style="fill-rule:nonzero" transform="matrix(.07497 0 0 .09264 -2.298 -9.965)"/>
  <path d="M347.558 134.902v8.157h-34.825v-8.157c0-9.617 7.796-17.412 17.413-17.412 4.814 0 9.154 1.945 12.311 5.102a17.342 17.342 0 0 1 5.101 12.31Z" style="fill:#0800d3;fill-rule:nonzero" transform="matrix(.07497 0 0 .09264 -2.298 -9.965)"/>
  <path d="M347.558 148.06h-34.825c-2.743 0-5-2.257-5-5v-8.157c0-12.358 10.055-22.412 22.413-22.412a22.277 22.277 0 0 1 15.846 6.565 22.269 22.269 0 0 1 6.566 15.847v8.157c0 2.76-2.239 5-5 5Zm-29.826-10h24.825v-3.157a12.326 12.326 0 0 0-3.637-8.774 12.325 12.325 0 0 0-8.775-3.638c-6.845 0-12.413 5.567-12.413 12.412v3.157Z" style="fill-rule:nonzero" transform="matrix(.07497 0 0 .09264 -2.298 -9.965)"/>
  <path d="M347.558 134.899v8.16h-6.38v-8.16c0-4.811-1.95-9.15-5.101-12.311a17.331 17.331 0 0 0-9.13-4.81c1.03-.19 2.101-.29 3.19-.29 4.819 0 9.16 1.95 12.31 5.1 3.16 3.161 5.111 7.501 5.111 12.311Z" style="fill-opacity:.1;fill-rule:nonzero" transform="matrix(.07497 0 0 .09264 -2.298 -9.965)"/>
  <path d="M335.749 255.166h-23.617c-2.743 0-5-2.257-5-5s2.257-5 5-5h23.617c2.743 0 5 2.257 5 5s-2.257 5-5 5Z" style="fill-rule:nonzero" transform="matrix(.07497 0 0 .09264 -2.298 -9.965)"/>
  <path d="M395.473 354.979c0-7.75-5.33-14.25-12.529-16.039 1.279-.32 2.619-.49 4-.49 9.129 0 16.529 7.398 16.529 16.529s-7.4 16.529-16.529 16.529c-1.381 0-2.721-.17-4-.49 7.199-1.789 12.529-8.289 12.529-16.039Z" style="fill-opacity:.2;fill-rule:nonzero" transform="matrix(.07497 0 0 .09264 -2.298 -9.965)"/>
  <path d="M431.383 354.979c0 24.551-19.891 44.449-44.439 44.449-1.351 0-2.681-.059-4-.18 22.67-2.02 40.439-21.07 40.439-44.27 0-23.189-17.77-42.24-40.439-44.26a43.79 43.79 0 0 1 4-.18c24.548.001 44.439 19.901 44.439 44.441Zm-309.157-.005c0-7.75-5.33-14.25-12.529-16.039 1.279-.32 2.619-.49 4-.49 9.129 0 16.529 7.398 16.529 16.529s-7.4 16.529-16.529 16.529c-1.381 0-2.721-.17-4-.49 7.199-1.789 12.529-8.289 12.529-16.039Z" style="fill-opacity:.2;fill-rule:nonzero" transform="matrix(.07497 0 0 .09264 -2.298 -9.965)"/>
  <path d="M158.136 354.974c0 24.551-19.891 44.449-44.439 44.449-1.351 0-2.681-.059-4-.18 22.67-2.02 40.439-21.07 40.439-44.27 0-23.189-17.77-42.24-40.439-44.26a43.79 43.79 0 0 1 4-.18c24.548.001 44.439 19.902 44.439 44.441Z" style="fill-opacity:.2;fill-rule:nonzero" transform="matrix(.07497 0 0 .09264 -2.298 -9.965)"/>
  <path d="M288.934 117.572v208.27h-20v-208.27c0-2.75-2.25-5-5-5h20c2.75 0 5 2.25 5 5Z" style="fill-opacity:.05;fill-rule:nonzero" transform="matrix(.07497 0 0 .09264 -2.298 -9.965)"/>
  <path d="M48.862 250.166h240.071v33.775H48.862z" style="fill:#ec2529;fill-rule:nonzero" transform="matrix(.07497 0 0 .09264 -2.298 -9.965)"/>
  <path d="M288.934 288.941H48.862c-2.743 0-5-2.257-5-5v-33.775c0-2.743 2.257-5 5-5h240.071c2.743 0 5 2.257 5 5v33.777c0 2.742-2.256 4.998-4.998 4.998h-.001Zm-235.072-10h230.071v-23.775H53.862v23.775Z" style="fill-rule:nonzero" transform="matrix(.07497 0 0 .09264 -2.298 -9.965)"/>
  <path d="M38.38 15.319c-.508 0-.959-.11-1.351-.331a2.396 2.396 0 0 1-.92-.911 2.613 2.613 0 0 1-.334-1.331c0-.505.111-.951.334-1.337.222-.387.529-.691.92-.911.392-.221.843-.331 1.351-.331.303 0 .582.045.838.137.255.091.483.215.681.373.198.158.363.34.494.546l-.797.494a1.322 1.322 0 0 0-.318-.343 1.594 1.594 0 0 0-.429-.233 1.393 1.393 0 0 0-.469-.083 1.534 1.534 0 0 0-1.403.81 1.79 1.79 0 0 0-.208.878c0 .326.068.617.203.873.136.255.327.455.573.6.247.145.532.218.857.218.252 0 .476-.05.673-.15.196-.1.351-.241.464-.422.113-.18.169-.389.169-.625l.928-.141c0 .469-.096.869-.289 1.201a1.915 1.915 0 0 1-.796.759c-.338.174-.729.26-1.171.26Zm.161-1.99v-.765h2.095v.608l-.528.157h-1.567Z" style="fill:#9c27b0;fill-rule:nonzero" transform="matrix(.4047 0 0 .4047 8.95 8.9)"/>
  <path d="M67.512 15.319c-.487 0-.918-.11-1.292-.331a2.362 2.362 0 0 1-.882-.911c-.213-.386-.32-.831-.32-1.334 0-.503.106-.948.319-1.334a2.34 2.34 0 0 1 .879-.911 2.476 2.476 0 0 1 1.287-.331c.343 0 .66.06.952.181.293.12.549.288.77.503.221.216.391.465.51.748l-.903.333a1.507 1.507 0 0 0-.32-.461 1.415 1.415 0 0 0-1.009-.413 1.407 1.407 0 0 0-1.3.81 1.908 1.908 0 0 0-.192.875c0 .33.065.623.194.878a1.435 1.435 0 0 0 1.319.813 1.328 1.328 0 0 0 1.006-.439 1.74 1.74 0 0 0 .318-.479l.903.333a2.342 2.342 0 0 1-1.282 1.285 2.451 2.451 0 0 1-.957.185Z" style="fill:#ff6f00;fill-rule:nonzero" transform="matrix(.4047 0 0 .4047 .122 8.9)"/>
  <path d="m40.057 22.351 1.43-4.982h.989l-1.487 4.982h-.932Zm-2.999 0-1.473-4.982h.989l1.416 4.982h-.932Zm.129 0 1.36-4.982h.882l-1.352 4.982h-.89Zm2.783 0-1.338-4.982h.882l1.388 4.982h-.932Z" style="fill:#0d47a1;fill-rule:nonzero" transform="matrix(.4047 0 0 .4047 8.616 8.707)"/>
  <path d="M68.897 22.351v-4.982h.972v4.982h-.972Zm-3.281 0v-4.986h.972v4.986h-.972Zm.724-2.103v-.891h3.018v.891H66.34Z" style="fill:#00bfa5;fill-rule:nonzero" transform="matrix(.4047 0 0 .4047 -.023 8.707)"/>
  <path d="M38.38 15.319c-.508 0-.959-.11-1.351-.331a2.396 2.396 0 0 1-.92-.911 2.613 2.613 0 0 1-.334-1.331c0-.505.111-.951.334-1.337.222-.387.529-.691.92-.911.392-.221.843-.331 1.351-.331.303 0 .582.045.838.137.255.091.483.215.681.373.198.158.363.34.494.546l-.797.494a1.322 1.322 0 0 0-.318-.343 1.594 1.594 0 0 0-.429-.233 1.393 1.393 0 0 0-.469-.083 1.534 1.534 0 0 0-1.403.81 1.79 1.79 0 0 0-.208.878c0 .326.068.617.203.873.136.255.327.455.573.6.247.145.532.218.857.218.252 0 .476-.05.673-.15.196-.1.351-.241.464-.422.113-.18.169-.389.169-.625l.928-.141c0 .469-.096.869-.289 1.201a1.915 1.915 0 0 1-.796.759c-.338.174-.729.26-1.171.26Zm.161-1.99v-.765h2.095v.608l-.528.157h-1.567Z" style="fill:#9c27b0;fill-rule:nonzero" transform="matrix(.36725 0 0 .36725 -10.39 1.43)"/>
  <path d="M67.512 15.319c-.487 0-.918-.11-1.292-.331a2.362 2.362 0 0 1-.882-.911c-.213-.386-.32-.831-.32-1.334 0-.503.106-.948.319-1.334a2.34 2.34 0 0 1 .879-.911 2.476 2.476 0 0 1 1.287-.331c.343 0 .66.06.952.181.293.12.549.288.77.503.221.216.391.465.51.748l-.903.333a1.507 1.507 0 0 0-.32-.461 1.415 1.415 0 0 0-1.009-.413 1.407 1.407 0 0 0-1.3.81 1.908 1.908 0 0 0-.192.875c0 .33.065.623.194.878a1.435 1.435 0 0 0 1.319.813 1.328 1.328 0 0 0 1.006-.439 1.74 1.74 0 0 0 .318-.479l.903.333a2.342 2.342 0 0 1-1.282 1.285 2.451 2.451 0 0 1-.957.185Z" style="fill:#ff6f00;fill-rule:nonzero" transform="matrix(.36725 0 0 .36725 -18.402 1.43)"/>
  <path d="m40.057 22.351 1.43-4.982h.989l-1.487 4.982h-.932Zm-2.999 0-1.473-4.982h.989l1.416 4.982h-.932Zm.129 0 1.36-4.982h.882l-1.352 4.982h-.89Zm2.783 0-1.338-4.982h.882l1.388 4.982h-.932Z" style="fill:#0d47a1;fill-rule:nonzero" transform="matrix(.36725 0 0 .36725 -10.693 1.256)"/>
  <path d="M68.897 22.351v-4.982h.972v4.982h-.972Zm-3.281 0v-4.986h.972v4.986h-.972Zm.724-2.103v-.891h3.018v.891H66.34Z" style="fill:#00bfa5;fill-rule:nonzero" transform="matrix(.36725 0 0 .36725 -18.533 1.256)"/>
  <path d="M37.959 12.274c-.566 0-1.066-.123-1.502-.368a2.667 2.667 0 0 1-1.025-1.013c-.247-.431-.37-.924-.37-1.482 0-.561.123-1.057.37-1.487.247-.43.589-.768 1.025-1.013.436-.246.936-.369 1.502-.369.337 0 .648.051.932.152.284.102.537.24.758.416.22.176.403.378.549.607l-.886.55a1.469 1.469 0 0 0-.354-.382 1.766 1.766 0 0 0-.477-.259 1.534 1.534 0 0 0-.522-.093c-.348 0-.657.08-.926.24-.269.16-.481.381-.635.661a2.001 2.001 0 0 0-.231.977c0 .364.075.687.226.971.151.284.364.507.638.668.274.162.591.243.952.243.281 0 .53-.056.749-.168a1.27 1.27 0 0 0 .516-.468c.126-.201.189-.433.189-.696l1.032-.157c0 .521-.107.967-.322 1.336-.214.37-.509.651-.885.844-.377.193-.811.29-1.303.29Zm.179-2.214v-.851h2.331v.676l-.587.175h-1.744Z" style="fill:#9c27b0;fill-rule:nonzero" transform="matrix(.99795 0 0 1 -.36 0)"/>
  <path d="m39.825 20.096 1.591-5.542h1.1l-1.655 5.542h-1.036Zm-3.337 0-1.638-5.542h1.1l1.575 5.542h-1.037Zm.144 0 1.513-5.542h.981l-1.504 5.542h-.99Zm3.096 0-1.488-5.542h.981l1.544 5.542h-1.037Z" style="fill:#0d47a1;fill-rule:nonzero" transform="matrix(.99795 0 0 1 -.36 0)"/>
</svg>
